<svg xmlns="http://www.w3.org/2000/svg" xmlns:xlink="http://www.w3.org/1999/xlink" xmlns:lucid="lucid" width="728" height="1209"><g transform="translate(-1934 63)" lucid:page-tab-id="0_0"><path d="M-1000-500h4000v2000h-4000z" fill="#fff"/><path d="M2120-22.25c22.1 0 40 17.9 40 40s-17.9 40-40 40h-80c-22.1 0-40-17.9-40-40s17.9-40 40-40z" stroke="#3a414a" stroke-width="2" fill="#fff"/><use xlink:href="#a" transform="matrix(1,0,0,1,2005,-17.24842086687329) translate(49.951171875 43.40277777777778)"/><path d="M2000 103.75a6 6 0 0 1 6-6h148a6 6 0 0 1 6 6v108a6 6 0 0 1-6 6h-148a6 6 0 0 1-6-6z" stroke="#3a414a" stroke-width="2" fill="#fff"/><use xlink:href="#b" transform="matrix(1,0,0,1,2012,109.75157913312671) translate(3.0299660123129764 42.53771504368405)"/><use xlink:href="#c" transform="matrix(1,0,0,1,2012,109.75157913312671) translate(20.717817530873155 65.53377803581003)"/><path d="M2075.2 583.6a8 8 0 0 1 9.6 0l70.4 52.8a4.5 4.5 0 0 1 0 7.2l-70.4 52.8a8 8 0 0 1-9.6 0l-70.4-52.8a4.5 4.5 0 0 1 0-7.2z" stroke="#3a414a" stroke-width="2" fill="#fff"/><use xlink:href="#d" transform="matrix(1,0,0,1,2005,585) translate(38.03017361111111 51.59722222222222)"/><use xlink:href="#e" transform="matrix(1,0,0,1,2005,585) translate(47.48329861111111 73.10763888888889)"/><path d="M2080 59.25v21.12" stroke="#3a414a" fill="none"/><path d="M2080.47 59.26h-.94v-.5h.94z" stroke="#3a414a" stroke-width=".05" fill="#3a414a"/><path d="M2080 95.13l-4.64-14.26h9.28z" stroke="#3a414a" fill="#3a414a"/><path d="M2080 219.25v18.5a.56.56 0 0 0 .56.56.56.56 0 0 1 .56.58v2.6" stroke="#3a414a" fill="none"/><path d="M2080.47 219.26h-.94v-.5h.94z" stroke="#3a414a" stroke-width=".05" fill="#3a414a"/><path d="M2081.12 256.26L2076.5 242h9.26z" stroke="#3a414a" fill="#3a414a"/><path d="M2000 748.25a6 6 0 0 1 6-6h148a6 6 0 0 1 6 6v108a6 6 0 0 1-6 6h-148a6 6 0 0 1-6-6z" stroke="#3a414a" stroke-width="2" fill="#fff"/><use xlink:href="#f" transform="matrix(1,0,0,1,2012,754.2484208668735) translate(5.4881642749334425 26.748738650421757)"/><use xlink:href="#g" transform="matrix(1,0,0,1,2012,754.2484208668735) translate(69.44302725182759 26.748738650421757)"/><use xlink:href="#h" transform="matrix(1,0,0,1,2012,754.2484208668735) translate(26.767046596266052 45.05744364773503)"/><use xlink:href="#i" transform="matrix(1,0,0,1,2012,754.2484208668735) translate(39.519598987453584 45.05744364773503)"/><use xlink:href="#j" transform="matrix(1,0,0,1,2012,754.2484208668735) translate(8.026114301800707 63.3661486450483)"/><use xlink:href="#k" transform="matrix(1,0,0,1,2012,754.2484208668735) translate(65.44215406536868 63.3661486450483)"/><use xlink:href="#l" transform="matrix(1,0,0,1,2012,754.2484208668735) translate(93.48151462420802 63.3661486450483)"/><use xlink:href="#m" transform="matrix(1,0,0,1,2012,754.2484208668735) translate(49.29458555381576 81.67485364236157)"/><path d="M2000 910.5a6 6 0 0 1 6-6h148a6 6 0 0 1 6 6v108a6 6 0 0 1-6 6h-148a6 6 0 0 1-6-6z" stroke="#3a414a" stroke-width="2" fill="#fff"/><use xlink:href="#n" transform="matrix(1,0,0,1,2012,916.496841733747) translate(5.3618037058958805 22.361302331965128)"/><use xlink:href="#o" transform="matrix(1,0,0,1,2012,916.496841733747) translate(71.08702309161586 22.361302331965128)"/><use xlink:href="#p" transform="matrix(1,0,0,1,2012,916.496841733747) translate(92.02464774259316 22.361302331965128)"/><use xlink:href="#q" transform="matrix(1,0,0,1,2012,916.496841733747) translate(4.666625205696446 42.74772036148248)"/><use xlink:href="#r" transform="matrix(1,0,0,1,2012,916.496841733747) translate(54.044866131105316 42.74772036148248)"/><use xlink:href="#s" transform="matrix(1,0,0,1,2012,916.496841733747) translate(1.898251651647778 63.13413839099983)"/><use xlink:href="#t" transform="matrix(1,0,0,1,2012,916.496841733747) translate(65.8299927764982 63.13413839099983)"/><use xlink:href="#u" transform="matrix(1,0,0,1,2012,916.496841733747) translate(90.98805021566854 63.13413839099983)"/><use xlink:href="#v" transform="matrix(1,0,0,1,2012,916.496841733747) translate(28.04354483074631 83.52055642051718)"/><path d="M2060 587.12a6 6 0 0 1 6-6h228a6 6 0 0 1 6 6v48a6 6 0 0 1-6 6h-228a6 6 0 0 1-6-6z" fill="none"/><use xlink:href="#w" transform="matrix(1,0,0,1,2060,581.1242104334368) translate(113.8671875 39.700520833333336)"/><path d="M2460 99.25a6 6 0 0 1 6-6h148a6 6 0 0 1 6 6v108a6 6 0 0 1-6 6h-148a6 6 0 0 1-6-6z" stroke="#3a414a" stroke-width="2" fill="#fff"/><use xlink:href="#x" transform="matrix(1,0,0,1,2472,105.25473739938013) translate(5.386643938970201 19.35283452419238)"/><use xlink:href="#y" transform="matrix(1,0,0,1,2472,105.25473739938013) translate(49.244942053404536 19.35283452419238)"/><use xlink:href="#z" transform="matrix(1,0,0,1,2472,105.25473739938013) translate(94.40403665678556 19.35283452419238)"/><use xlink:href="#A" transform="matrix(1,0,0,1,2472,105.25473739938013) translate(11.90403665678557 35.96816287269694)"/><use xlink:href="#B" transform="matrix(1,0,0,1,2472,105.25473739938013) translate(68.40151715093381 35.96816287269694)"/><use xlink:href="#C" transform="matrix(1,0,0,1,2472,105.25473739938013) translate(12.302992280972813 52.583491221201484)"/><use xlink:href="#D" transform="matrix(1,0,0,1,2472,105.25473739938013) translate(64.40860834079076 52.583491221201484)"/><use xlink:href="#E" transform="matrix(1,0,0,1,2472,105.25473739938013) translate(84.45026146172704 52.583491221201484)"/><use xlink:href="#F" transform="matrix(1,0,0,1,2472,105.25473739938013) translate(8.363724563157469 69.19881956970603)"/><use xlink:href="#G" transform="matrix(1,0,0,1,2472,105.25473739938013) translate(65.60547521335252 69.19881956970603)"/><use xlink:href="#H" transform="matrix(1,0,0,1,2472,105.25473739938013) translate(111.98490466718869 69.19881956970603)"/><use xlink:href="#I" transform="matrix(1,0,0,1,2472,105.25473739938013) translate(11.116183113222483 85.8141479182106)"/><use xlink:href="#J" transform="matrix(1,0,0,1,2472,105.25473739938013) translate(79.98464052544617 85.8141479182106)"/><path d="M2460 256.62a6 6 0 0 1 6-6h148a6 6 0 0 1 6 6V369.9a6 6 0 0 1-6 6h-148a6 6 0 0 1-6-6z" stroke="#3a414a" stroke-width="2" fill="#fff"/><use xlink:href="#K" transform="matrix(1,0,0,1,2472,262.6178721650049) translate(5.9293107503034355 27.730030226288076)"/><use xlink:href="#L" transform="matrix(1,0,0,1,2472,262.6178721650049) translate(70.85903284772978 27.730030226288076)"/><use xlink:href="#M" transform="matrix(1,0,0,1,2472,262.6178721650049) translate(15.53449896030279 46.31781342377219)"/><use xlink:href="#N" transform="matrix(1,0,0,1,2472,262.6178721650049) translate(67.41976787757383 46.31781342377219)"/><use xlink:href="#O" transform="matrix(1,0,0,1,2472,262.6178721650049) translate(6.244357923142143 64.90559662125631)"/><use xlink:href="#P" transform="matrix(1,0,0,1,2472,262.6178721650049) translate(54.7691236634669 64.90559662125631)"/><use xlink:href="#Q" transform="matrix(1,0,0,1,2472,262.6178721650049) translate(106.34684653106206 64.90559662125631)"/><use xlink:href="#R" transform="matrix(1,0,0,1,2472,262.6178721650049) translate(7.81959378733571 83.49337981874042)"/><use xlink:href="#S" transform="matrix(1,0,0,1,2472,262.6178721650049) translate(84.8636297927269 83.49337981874042)"/><path d="M2460 579.25a6 6 0 0 1 6-6h148a6 6 0 0 1 6 6v108a6 6 0 0 1-6 6h-148a6 6 0 0 1-6-6z" stroke="#3a414a" stroke-width="2" fill="#fff"/><use xlink:href="#T" transform="matrix(1,0,0,1,2472,585.2547373993799) translate(47.48133680555556 57.52777777777778)"/><use xlink:href="#U" transform="matrix(1,0,0,1,2472,585.2547373993799) translate(59.11328125 57.52777777777778)"/><path d="M2460 419.25a6 6 0 0 1 6-6h148a6 6 0 0 1 6 6v108a6 6 0 0 1-6 6h-148a6 6 0 0 1-6-6z" stroke="#3a414a" stroke-width="2" fill="#fff"/><use xlink:href="#V" transform="matrix(1,0,0,1,2472,425.25473739937985) translate(3.9162146062387184 33.490458853933575)"/><use xlink:href="#W" transform="matrix(1,0,0,1,2472,425.25473739937985) translate(58.1583405904907 33.490458853933575)"/><use xlink:href="#X" transform="matrix(1,0,0,1,2472,425.25473739937985) translate(2.4778006579822605 56.48652184605956)"/><use xlink:href="#Y" transform="matrix(1,0,0,1,2472,425.25473739937985) translate(66.66818311017573 56.48652184605956)"/><use xlink:href="#Z" transform="matrix(1,0,0,1,2472,425.25473739937985) translate(95.04669829577755 56.48652184605956)"/><use xlink:href="#aa" transform="matrix(1,0,0,1,2472,425.25473739937985) translate(27.650044752470457 79.48258483818555)"/><path d="M2230 748.25a6 6 0 0 1 6-6h148a6 6 0 0 1 6 6v108a6 6 0 0 1-6 6h-148a6 6 0 0 1-6-6z" stroke="#3a414a" stroke-width="2" fill="#fff"/><use xlink:href="#ab" transform="matrix(1,0,0,1,2242,754.2484208668735) translate(11.734690421761783 33.490458853933575)"/><use xlink:href="#Z" transform="matrix(1,0,0,1,2242,754.2484208668735) translate(85.789808531998 33.490458853933575)"/><use xlink:href="#ac" transform="matrix(1,0,0,1,2242,754.2484208668735) translate(2.422120118049767 56.48652184605956)"/><use xlink:href="#ad" transform="matrix(1,0,0,1,2242,754.2484208668735) translate(38.697991884078995 79.48258483818555)"/><path d="M2080 867.25v19.86M2080 867.26v-.5" stroke="#3a414a" fill="none"/><path d="M2080 901.88l-4.64-14.27h9.28z" stroke="#3a414a" fill="#3a414a"/><path d="M2540 534.75v21.12" stroke="#3a414a" fill="none"/><path d="M2540.47 534.77h-.94v-.5h.94z" stroke="#3a414a" stroke-width=".05" fill="#3a414a"/><path d="M2540 570.64l-4.64-14.27h9.28z" stroke="#3a414a" fill="#3a414a"/><path d="M2540 377.4v18.47" stroke="#3a414a" fill="none"/><path d="M2540.47 377.4h-.94v-.5h.94z" stroke="#3a414a" stroke-width=".05" fill="#3a414a"/><path d="M2540 410.64l-4.64-14.27h9.28z" stroke="#3a414a" fill="#3a414a"/><path d="M2541.12 214.75v18.48" stroke="#3a414a" fill="none"/><path d="M2541.6 214.77h-.95v-.52h.95z" stroke="#3a414a" stroke-width=".05" fill="#3a414a"/><path d="M2541.12 248l-4.63-14.27h9.26z" stroke="#3a414a" fill="#3a414a"/><path d="M2102.25 1087.87c0 11.67-9.46 21.12-21.13 21.12-11.66 0-21.12-9.46-21.12-21.13 0-11.67 9.46-21.13 21.12-21.13 11.67 0 21.13 9.46 21.13 21.13z" stroke="#3a414a" stroke-width="2" fill="#fff"/><g><use xlink:href="#ae" transform="matrix(1,0,0,1,2065,1071.7452626006204) translate(8.833984375 23.59027777777778)"/></g><path d="M2561.12 17.75c0 11.67-9.45 21.13-21.12 21.13-11.67 0-21.12-9.46-21.12-21.13 0-11.66 9.45-21.12 21.12-21.12 11.67 0 21.12 9.46 21.12 21.12z" stroke="#3a414a" stroke-width="2" fill="#fff"/><g><use xlink:href="#af" transform="matrix(1,0,0,1,2523.875789566563,1.6273686996900096) translate(8.833984375 23.59027777777778)"/></g><path d="M2080 1026v23.44" stroke="#3a414a" fill="none"/><path d="M2080.47 1026h-.94v-.5h.94z" stroke="#3a414a" stroke-width=".05" fill="#3a414a"/><path d="M2080 1064.2l-4.64-14.26h9.28z" stroke="#3a414a" fill="#3a414a"/><path d="M2540 40.38v35.5" stroke="#3a414a" fill="none"/><path d="M2539.98 39.88l.5-.04v.55h-.95v-.57z" stroke="#3a414a" stroke-width=".05" fill="#3a414a"/><path d="M2540 90.64l-4.64-14.27h9.28z" stroke="#3a414a" fill="#3a414a"/><path d="M2561.12 757.75c0 11.67-9.45 21.13-21.12 21.13-11.67 0-21.12-9.46-21.12-21.13 0-11.66 9.45-21.12 21.12-21.12 11.67 0 21.12 9.46 21.12 21.12z" stroke="#3a414a" stroke-width="2" fill="#fff"/><g><use xlink:href="#ag" transform="matrix(1,0,0,1,2523.875789566563,741.62736869969) translate(9.230034722222221 23.59027777777778)"/></g><path d="M2331.12 561.12c0 11.67-9.45 21.13-21.12 21.13-11.67 0-21.12-9.46-21.12-21.13 0-11.66 9.45-21.12 21.12-21.12 11.67 0 21.12 9.46 21.12 21.12z" stroke="#3a414a" stroke-width="2" fill="#fff"/><g><use xlink:href="#ag" transform="matrix(1,0,0,1,2293.875789566563,545) translate(9.230034722222221 23.59027777777778)"/></g><path d="M2287.5 560h-203.88a3.62 3.62 0 0 0-3.62 3.62" stroke="#3a414a" fill="none"/><path d="M2287.95 560.46h-.46v-.95h.56z" stroke="#3a414a" stroke-width=".05" fill="#3a414a"/><path d="M2080 578.38l-4.64-14.26h9.28z" stroke="#3a414a" fill="#3a414a"/><path d="M2540 694.75v24.5" stroke="#3a414a" fill="none"/><path d="M2540.47 694.77h-.94v-.5h.94z" stroke="#3a414a" stroke-width=".05" fill="#3a414a"/><path d="M2540 734l-4.64-14.26h9.28z" stroke="#3a414a" fill="#3a414a"/><path d="M2031.58 264.67a7.8 7.8 0 0 1 7.54-5.8h116a4.6 4.6 0 0 1 4.46 5.8l-28.9 108.4a7.8 7.8 0 0 1-7.56 5.8h-116a4.6 4.6 0 0 1-4.45-5.8z" stroke="#3a414a" stroke-width="2" fill="#fff"/><g><use xlink:href="#ah" transform="matrix(1,0,0,1,2006.124210433437,263.8757895665634) translate(48.33052083333334 41.28472222222222)"/><use xlink:href="#ai" transform="matrix(1,0,0,1,2006.124210433437,263.8757895665634) translate(15.465069444444433 62.795138888888886)"/><use xlink:href="#aj" transform="matrix(1,0,0,1,2006.124210433437,263.8757895665634) translate(79.50152777777778 62.795138888888886)"/><use xlink:href="#ak" transform="matrix(1,0,0,1,2006.124210433437,263.8757895665634) translate(16.748055555555545 84.30555555555554)"/><use xlink:href="#al" transform="matrix(1,0,0,1,2006.124210433437,263.8757895665634) translate(43.29319444444444 84.30555555555554)"/><use xlink:href="#am" transform="matrix(1,0,0,1,2006.124210433437,263.8757895665634) translate(84.50847222222222 84.30555555555554)"/></g><path d="M2000 425.44a6 6 0 0 1 6-6h148a6 6 0 0 1 6 6v108a6 6 0 0 1-6 6h-148a6 6 0 0 1-6-6z" stroke="#3a414a" stroke-width="2" fill="#fff"/><g><use xlink:href="#T" transform="matrix(1,0,0,1,2012,431.4378947832817) translate(44.69813368055556 57.52777777777778)"/><use xlink:href="#an" transform="matrix(1,0,0,1,2012,431.4378947832817) translate(56.330078125 57.52777777777778)"/><use xlink:href="#ao" transform="matrix(1,0,0,1,2012,431.4378947832817) translate(77.28276909722223 57.52777777777778)"/></g><path d="M2080 699.5v25.37" stroke="#3a414a" fill="none"/><path d="M2080 699l.47-.03v.54h-.94V699z" stroke="#3a414a" stroke-width=".05" fill="#3a414a"/><path d="M2080 739.63l-4.64-14.26h9.28z" stroke="#3a414a" fill="#3a414a"/><path d="M2080 540.94v22.68" stroke="#3a414a" fill="none"/><path d="M2080.47 540.95h-.94v-.5h.94z" stroke="#3a414a" stroke-width=".05" fill="#3a414a"/><path d="M2080 578.38l-4.64-14.26h9.28z" stroke="#3a414a" fill="#3a414a"/><path d="M2080 380.38v21.67" stroke="#3a414a" fill="none"/><path d="M2080.47 380.4h-.94v-.52h.94z" stroke="#3a414a" stroke-width=".05" fill="#3a414a"/><path d="M2080 416.82l-4.64-14.27h9.28z" stroke="#3a414a" fill="#3a414a"/><path d="M2350 924.5c22.1 0 40 17.9 40 40s-17.9 40-40 40h-80c-22.1 0-40-17.9-40-40s17.9-40 40-40z" stroke="#3a414a" stroke-width="2" fill="#fff"/><g><use xlink:href="#ap" transform="matrix(1,0,0,1,2235,929.496841733747) translate(41.921657986111114 43.40277777777778)"/></g><path d="M2310 863.75v43.36" stroke="#3a414a" fill="none"/><path d="M2310.47 863.76h-.94v-.5h.94z" stroke="#3a414a" stroke-width=".05" fill="#3a414a"/><path d="M2310 921.88l-4.64-14.27h9.28z" stroke="#3a414a" fill="#3a414a"/><path d="M2158.5 640H2304a6 6 0 0 1 6 6v78.87" stroke="#3a414a" fill="none"/><path d="M2158.52 640.48h-.56l.04-.48-.04-.48h.56z" stroke="#3a414a" stroke-width=".05" fill="#3a414a"/><path d="M2310 739.63l-4.64-14.26h9.28z" stroke="#3a414a" fill="#3a414a"/><defs><path d="M657 26c-323 0-524-166-541-416h195c15 169 171 246 346 246 202 0 356-106 356-265 5-203-294-238-475-293-239-73-380-191-380-389 0-252 224-419 512-419 294 0 499 171 508 396H992c-17-145-151-228-328-228-193 0-321 102-321 242 0 156 175 211 284 241l149 41c160 44 422 134 422 412 0 244-197 432-541 432" id="aq"/><path d="M598-1118v154H368v674c0 100 37 144 132 144 23 0 62-6 92-12L629-6c-37 13-88 20-134 20-193 0-307-107-307-290v-688H20v-154h168v-266h180v266h230" id="ar"/><path d="M471 26C259 26 90-98 90-318c0-256 228-303 435-329 202-27 287-16 287-108 0-139-79-219-234-219-161 0-248 86-283 164l-173-57c86-203 278-265 451-265 150 0 419 46 419 395V0H815v-152h-12C765-73 660 26 471 26zm31-159c199 0 310-134 310-271v-155c-30 35-226 55-295 64-131 17-246 59-246 186 0 116 97 176 231 176" id="as"/><path d="M158 0v-1118h174v172h12c41-113 157-188 290-188 26 0 70 2 91 3v181c-11-2-60-10-108-10-161 0-279 109-279 260V0H158" id="at"/><g id="a"><use transform="matrix(0.010850694444444444,0,0,0.010850694444444444,0,0)" xlink:href="#aq"/><use transform="matrix(0.010850694444444444,0,0,0.010850694444444444,14.2578125,0)" xlink:href="#ar"/><use transform="matrix(0.010850694444444444,0,0,0.010850694444444444,21.63628472222222,0)" xlink:href="#as"/><use transform="matrix(0.010850694444444444,0,0,0.010850694444444444,34.11458333333333,0)" xlink:href="#at"/><use transform="matrix(0.010850694444444444,0,0,0.010850694444444444,42.827690972222214,0)" xlink:href="#ar"/></g><path d="M600 0L52-1490h200c166 485 304 806 458 1336 156-533 285-846 449-1336h202L819 0H600" id="au"/><path d="M140 405l46-156c120 36 205 19 263-150l32-93L54-1118h197c107 313 237 620 324 950 87-331 219-637 326-950h196L606 167c-68 178-176 259-334 259-64 0-113-12-132-21" id="av"/><path d="M481 0L54-1118h197c107 314 236 620 325 951 87-331 217-637 324-951h197L670 0H481" id="aw"/><path d="M613 24c-304 0-509-231-509-576 0-350 205-580 509-580 305 0 511 230 511 580 0 345-206 576-511 576zm0-161c226 0 329-195 329-415 0-222-103-419-329-419-223 0-326 196-326 419 0 220 103 415 326 415" id="ax"/><path d="M158 0v-1118h174v172h12c41-113 157-188 290-188 26 0 70 2 91 3v181c-11-2-60-10-108-10-161 0-279 109-279 260V0H158zm125-1558l144 175 142-175h179v9l-236 267H341l-235-267v-9h177" id="ay"/><path d="M628 24c-324 0-524-230-524-574 0-343 198-582 503-582 237 0 487 146 487 559v75H286c9 234 145 362 343 362 132 0 231-58 273-172l174 48C1024-91 857 24 628 24zM287-650h624c-17-190-120-322-304-322-192 0-309 151-320 322" id="az"/><path d="M338-670V0H158v-1118h173l1 207c72-158 192-221 342-221 226 0 378 139 378 422V0H872v-695c0-172-96-275-252-275-161 0-282 109-282 300" id="aA"/><path d="M158 0v-1118h180V0H158zm12-1264l140-294h201l-194 294H170" id="aB"/><path d="M158 418v-1536h174v179h20c37-59 106-193 324-193 279 0 474 222 474 576 0 356-194 580-473 580-213 0-288-135-325-197h-14v591H158zm492-555c209 0 317-186 317-421 0-232-105-413-317-413-206 0-314 166-314 413 0 249 111 421 314 421" id="aC"/><path d="M338-1490V0H158v-1490h180" id="aD"/><g id="b"><use transform="matrix(0.009280089988751407,0,0,0.009280089988751407,0,0)" xlink:href="#au"/><use transform="matrix(0.009280089988751407,0,0,0.009280089988751407,13.112767154105738,0)" xlink:href="#av"/><use transform="matrix(0.009280089988751407,0,0,0.009280089988751407,24.07255343082115,0)" xlink:href="#ar"/><use transform="matrix(0.009280089988751407,0,0,0.009280089988751407,30.661417322834648,0)" xlink:href="#aw"/><use transform="matrix(0.009280089988751407,0,0,0.009280089988751407,40.97159730033746,0)" xlink:href="#ax"/><use transform="matrix(0.009280089988751407,0,0,0.009280089988751407,52.36754780652418,0)" xlink:href="#ay"/><use transform="matrix(0.009280089988751407,0,0,0.009280089988751407,59.206974128233966,0)" xlink:href="#az"/><use transform="matrix(0.009280089988751407,0,0,0.009280089988751407,70.28740157480316,0)" xlink:href="#aA"/><use transform="matrix(0.009280089988751407,0,0,0.009280089988751407,81.51631046119235,0)" xlink:href="#aB"/><use transform="matrix(0.009280089988751407,0,0,0.009280089988751407,91.46456692913385,0)" xlink:href="#aC"/><use transform="matrix(0.009280089988751407,0,0,0.009280089988751407,103.10179977502811,0)" xlink:href="#ax"/><use transform="matrix(0.009280089988751407,0,0,0.009280089988751407,114.49775028121483,0)" xlink:href="#aD"/><use transform="matrix(0.009280089988751407,0,0,0.009280089988751407,119.10067491563554,0)" xlink:href="#az"/></g><path d="M613 24c-304 0-509-231-509-576 0-350 205-580 509-580 216 0 392 114 453 309l-173 49c-33-115-133-197-280-197-223 0-326 196-326 419 0 220 103 415 326 415 150 0 252-85 285-206l172 49C1010-95 832 24 613 24" id="aE"/><path d="M338-670V0H158v-1490h180v566c73-149 190-208 336-208 226 0 379 139 379 422V0H872v-695c0-172-96-275-252-275-161 0-282 109-282 300" id="aF"/><path d="M538 24C308 24 148-78 108-271l171-41c32 123 123 178 257 178 156 0 256-77 256-169 0-77-54-128-164-154l-186-44c-203-48-300-148-300-305 0-192 176-326 414-326 230 0 351 112 402 269l-163 42c-31-80-94-158-238-158-133 0-233 69-233 162 0 83 57 129 188 160l169 40c203 48 298 149 298 302 0 196-179 339-441 339" id="aG"/><path d="M226 279v-1860h398v153H398V126h226v153H226" id="aH"/><path d="M123 279V126h226v-1554H123v-153h398V279H123" id="aI"/><g id="c"><use transform="matrix(0.009280089988751407,0,0,0.009280089988751407,0,0)" xlink:href="#aE"/><use transform="matrix(0.009280089988751407,0,0,0.009280089988751407,10.857705286839147,0)" xlink:href="#aF"/><use transform="matrix(0.009280089988751407,0,0,0.009280089988751407,22.095894263217097,0)" xlink:href="#as"/><use transform="matrix(0.009280089988751407,0,0,0.009280089988751407,32.76799775028121,0)" xlink:href="#aA"/><use transform="matrix(0.009280089988751407,0,0,0.009280089988751407,43.99690663667041,0)" xlink:href="#aA"/><use transform="matrix(0.009280089988751407,0,0,0.009280089988751407,55.22581552305961,0)" xlink:href="#az"/><use transform="matrix(0.009280089988751407,0,0,0.009280089988751407,66.30624296962878,0)" xlink:href="#aD"/><use transform="matrix(0.009280089988751407,0,0,0.009280089988751407,70.90916760404949,0)" xlink:href="#aG"/><use transform="matrix(0.009280089988751407,0,0,0.009280089988751407,80.94094488188976,0)" xlink:href="#aH"/><use transform="matrix(0.009280089988751407,0,0,0.009280089988751407,87.87317210348706,0)" xlink:href="#aI"/></g><path d="M158 0v-1118h180V0H158zm91-1301c-68 0-125-53-125-119s57-119 125-119c69 0 126 53 126 119s-57 119-126 119" id="aJ"/><path d="M174-520v-126l944-476v196L406-588v12l712 338v194" id="aK"/><path d="M613 24c-304 0-509-231-509-576 0-350 205-580 509-580 216 0 392 114 453 309l-173 49c-33-115-133-197-280-197-223 0-326 196-326 419 0 220 103 415 326 415 150 0 252-85 285-206l172 49C1010-95 832 24 613 24zM469-1558l144 175 142-175h179v9l-236 267H527l-235-267v-9h177" id="aL"/><g id="d"><use transform="matrix(0.008680555555555556,0,0,0.008680555555555556,0,0)" xlink:href="#aJ"/><use transform="matrix(0.008680555555555556,0,0,0.008680555555555556,9.305555555555555,0)" xlink:href="#aK"/><use transform="matrix(0.008680555555555556,0,0,0.008680555555555556,26.067708333333336,0)" xlink:href="#aC"/><use transform="matrix(0.008680555555555556,0,0,0.008680555555555556,36.953125,0)" xlink:href="#ax"/><use transform="matrix(0.008680555555555556,0,0,0.008680555555555556,47.61284722222222,0)" xlink:href="#aL"/><use transform="matrix(0.008680555555555556,0,0,0.008680555555555556,57.76909722222222,0)" xlink:href="#az"/><use transform="matrix(0.008680555555555556,0,0,0.008680555555555556,68.13368055555556,0)" xlink:href="#ar"/></g><path d="M158 0v-1490h180v865h22l478-493h223L593-638 1096 0H865L456-523 338-412V0H158" id="aM"/><path d="M471 26C259 26 90-98 90-318c0-256 228-303 435-329 202-27 287-16 287-108 0-139-79-219-234-219-161 0-248 86-283 164l-173-57c86-203 278-265 451-265 150 0 419 46 419 395V0H815v-152h-12C765-73 660 26 471 26zm31-159c199 0 310-134 310-271v-155c-30 35-226 55-295 64-131 17-246 59-246 186 0 116 97 176 231 176zm-23-1131l140-294h201l-194 294H479" id="aN"/><path d="M537 14c-226 0-379-139-379-422v-710h180v695c0 172 97 275 253 275 160 0 281-109 281-300v-670h181V0H879v-209C806-46 684 14 537 14zm68-1203c-145 0-263-112-263-252 0-139 118-251 263-251s263 112 263 251c0 140-118 252-263 252zm0-126c70 0 126-56 126-126 0-69-56-125-126-125s-125 56-125 125c0 70 56 126 125 126" id="aO"/><g id="e"><use transform="matrix(0.008680555555555556,0,0,0.008680555555555556,0,0)" xlink:href="#aM"/><use transform="matrix(0.008680555555555556,0,0,0.008680555555555556,9.756944444444445,0)" xlink:href="#as"/><use transform="matrix(0.008680555555555556,0,0,0.008680555555555556,19.739583333333336,0)" xlink:href="#aA"/><use transform="matrix(0.008680555555555556,0,0,0.008680555555555556,30.243055555555557,0)" xlink:href="#aN"/><use transform="matrix(0.008680555555555556,0,0,0.008680555555555556,40.22569444444444,0)" xlink:href="#aD"/><use transform="matrix(0.008680555555555556,0,0,0.008680555555555556,44.53125,0)" xlink:href="#aO"/></g><path d="M140 405l46-156c120 36 205 19 263-150l32-93L54-1118h197c107 313 237 620 324 950 87-331 219-637 326-950h196L606 167c-68 178-176 259-334 259-64 0-113-12-132-21zm357-1669l140-294h201l-194 294H497" id="aP"/><g id="f"><use transform="matrix(0.0073885008060182705,0,0,0.0073885008060182705,0,0)" xlink:href="#au"/><use transform="matrix(0.0073885008060182705,0,0,0.0073885008060182705,10.439951638903816,0)" xlink:href="#aP"/><use transform="matrix(0.0073885008060182705,0,0,0.0073885008060182705,18.944116066630844,0)" xlink:href="#aC"/><use transform="matrix(0.0073885008060182705,0,0,0.0073885008060182705,28.209296077377758,0)" xlink:href="#ax"/><use transform="matrix(0.0073885008060182705,0,0,0.0073885008060182705,37.28237506716819,0)" xlink:href="#aL"/><use transform="matrix(0.0073885008060182705,0,0,0.0073885008060182705,45.92692101020957,0)" xlink:href="#az"/><use transform="matrix(0.0073885008060182705,0,0,0.0073885008060182705,54.74879097259538,0)" xlink:href="#ar"/></g><path d="M677 24c-213 0-288-135-325-197h-20V0H158v-1490h180v551h14c37-59 106-193 324-193 279 0 474 222 474 576 0 356-194 580-473 580zm-27-161c209 0 317-186 317-421 0-232-105-413-317-413-206 0-314 166-314 413 0 249 111 421 314 421" id="aQ"/><path d="M628 24c-324 0-524-230-524-574 0-343 198-582 503-582 237 0 487 146 487 559v75H286c9 234 145 362 343 362 132 0 231-58 273-172l174 48C1024-91 857 24 628 24zM287-650h624c-17-190-120-322-304-322-192 0-309 151-320 322zm237-614l140-294h201l-194 294H524" id="aR"/><g id="g"><use transform="matrix(0.0073885008060182705,0,0,0.0073885008060182705,0,0)" xlink:href="#aQ"/><use transform="matrix(0.0073885008060182705,0,0,0.0073885008060182705,9.265180010746912,0)" xlink:href="#aJ"/><use transform="matrix(0.0073885008060182705,0,0,0.0073885008060182705,12.929876410531973,0)" xlink:href="#ar"/><use transform="matrix(0.0073885008060182705,0,0,0.0073885008060182705,17.73240193444385,0)" xlink:href="#ax"/><use transform="matrix(0.0073885008060182705,0,0,0.0073885008060182705,26.509940891993555,0)" xlink:href="#aw"/><use transform="matrix(0.0073885008060182705,0,0,0.0073885008060182705,34.718565287479855,0)" xlink:href="#aR"/><use transform="matrix(0.0073885008060182705,0,0,0.0073885008060182705,43.540435249865666,0)" xlink:href="#aF"/><use transform="matrix(0.0073885008060182705,0,0,0.0073885008060182705,52.48790972595379,0)" xlink:href="#ax"/></g><use transform="matrix(0.0073885008060182705,0,0,0.0073885008060182705,0,0)" xlink:href="#as" id="h"/><path d="M157-1118h181V80c1 225-123 350-364 338V252c126 9 184-48 183-172v-1198zm91-183c-68 0-125-53-125-119s57-119 125-119c69 0 126 53 126 119s-57 119-126 119" id="aS"/><g id="i"><use transform="matrix(0.0073885008060182705,0,0,0.0073885008060182705,0,0)" xlink:href="#aQ"/><use transform="matrix(0.0073885008060182705,0,0,0.0073885008060182705,9.412950026867277,0)" xlink:href="#as"/><use transform="matrix(0.0073885008060182705,0,0,0.0073885008060182705,17.90972595378829,0)" xlink:href="#aS"/><use transform="matrix(0.0073885008060182705,0,0,0.0073885008060182705,21.57442235357335,0)" xlink:href="#ar"/><use transform="matrix(0.0073885008060182705,0,0,0.0073885008060182705,26.376947877485225,0)" xlink:href="#ax"/><use transform="matrix(0.0073885008060182705,0,0,0.0073885008060182705,35.15448683503493,0)" xlink:href="#aw"/><use transform="matrix(0.0073885008060182705,0,0,0.0073885008060182705,43.36311123052123,0)" xlink:href="#aR"/><use transform="matrix(0.0073885008060182705,0,0,0.0073885008060182705,52.184981192907046,0)" xlink:href="#aF"/><use transform="matrix(0.0073885008060182705,0,0,0.0073885008060182705,61.13245566899517,0)" xlink:href="#ax"/></g><path d="M537 14c-226 0-379-139-379-422v-710h180v695c0 172 97 275 253 275 160 0 281-109 281-300v-670h181V0H879v-209C806-46 684 14 537 14" id="aT"/><g id="j"><use transform="matrix(0.0073885008060182705,0,0,0.0073885008060182705,0,0)" xlink:href="#aC"/><use transform="matrix(0.0073885008060182705,0,0,0.0073885008060182705,9.265180010746912,0)" xlink:href="#ax"/><use transform="matrix(0.0073885008060182705,0,0,0.0073885008060182705,18.33825900053735,0)" xlink:href="#aG"/><use transform="matrix(0.0073885008060182705,0,0,0.0073885008060182705,26.3252283718431,0)" xlink:href="#aT"/><use transform="matrix(0.0073885008060182705,0,0,0.0073885008060182705,35.27270284793122,0)" xlink:href="#aA"/><use transform="matrix(0.0073885008060182705,0,0,0.0073885008060182705,44.21278882321332,0)" xlink:href="#aT"/></g><g id="k"><use transform="matrix(0.0073885008060182705,0,0,0.0073885008060182705,0,0)" xlink:href="#aC"/><use transform="matrix(0.0073885008060182705,0,0,0.0073885008060182705,9.265180010746912,0)" xlink:href="#at"/><use transform="matrix(0.0073885008060182705,0,0,0.0073885008060182705,14.710505104782376,0)" xlink:href="#ax"/></g><path d="M577 24c-279 0-473-224-473-580 0-354 195-576 474-576 218 0 287 134 324 193h14v-551h180V0H922v-173h-20C865-111 790 24 577 24zm27-161c203 0 314-172 314-421 0-247-108-413-314-413-212 0-317 181-317 413 0 235 108 421 317 421" id="aU"/><g id="l"><use transform="matrix(0.0073885008060182705,0,0,0.0073885008060182705,0,0)" xlink:href="#aU"/><use transform="matrix(0.0073885008060182705,0,0,0.0073885008060182705,9.265180010746912,0)" xlink:href="#as"/><use transform="matrix(0.0073885008060182705,0,0,0.0073885008060182705,17.761955937667924,0)" xlink:href="#aA"/><use transform="matrix(0.0073885008060182705,0,0,0.0073885008060182705,26.480386888769484,0)" xlink:href="#aP"/></g><g id="m"><use transform="matrix(0.0073885008060182705,0,0,0.0073885008060182705,0,0)" xlink:href="#aM"/><use transform="matrix(0.0073885008060182705,0,0,0.0073885008060182705,8.304674905964536,0)" xlink:href="#as"/><use transform="matrix(0.0073885008060182705,0,0,0.0073885008060182705,16.80145083288555,0)" xlink:href="#aA"/><use transform="matrix(0.0073885008060182705,0,0,0.0073885008060182705,25.741536808167655,0)" xlink:href="#aN"/><use transform="matrix(0.0073885008060182705,0,0,0.0073885008060182705,34.23831273508867,0)" xlink:href="#aD"/></g><path d="M180 0v-1490h224l606 953c40 63 108 177 176 312-27-437-7-821-13-1265h190V0h-226C860-448 622-778 356-1262c27 476 11 792 15 1262H180" id="aV"/><g id="n"><use transform="matrix(0.008226964499401676,0,0,0.008226964499401676,0,0)" xlink:href="#aV"/><use transform="matrix(0.008226964499401676,0,0,0.008226964499401676,12.694206222576787,0)" xlink:href="#as"/><use transform="matrix(0.008226964499401676,0,0,0.008226964499401676,22.155215396888718,0)" xlink:href="#aL"/><use transform="matrix(0.008226964499401676,0,0,0.008226964499401676,31.780763861188678,0)" xlink:href="#ar"/><use transform="matrix(0.008226964499401676,0,0,0.008226964499401676,37.12829078579977,0)" xlink:href="#az"/><use transform="matrix(0.008226964499401676,0,0,0.008226964499401676,46.951286398085365,0)" xlink:href="#aA"/><use transform="matrix(0.008226964499401676,0,0,0.008226964499401676,56.9059134423614,0)" xlink:href="#aB"/></g><g id="o"><use transform="matrix(0.008226964499401676,0,0,0.008226964499401676,0,0)" xlink:href="#ar"/><use transform="matrix(0.008226964499401676,0,0,0.008226964499401676,5.512066214599123,0)" xlink:href="#ay"/><use transform="matrix(0.008226964499401676,0,0,0.008226964499401676,12.118318707618672,0)" xlink:href="#aB"/></g><g id="p"><use transform="matrix(0.008226964499401676,0,0,0.008226964499401676,0,0)" xlink:href="#aQ"/><use transform="matrix(0.008226964499401676,0,0,0.008226964499401676,10.481152772237737,0)" xlink:href="#as"/><use transform="matrix(0.008226964499401676,0,0,0.008226964499401676,19.942161946549668,0)" xlink:href="#aS"/><use transform="matrix(0.008226964499401676,0,0,0.008226964499401676,24.022736338252898,0)" xlink:href="#ar"/><use transform="matrix(0.008226964499401676,0,0,0.008226964499401676,29.53480255285202,0)" xlink:href="#aO"/></g><g id="q"><use transform="matrix(0.008226964499401676,0,0,0.008226964499401676,0,0)" xlink:href="#aC"/><use transform="matrix(0.008226964499401676,0,0,0.008226964499401676,10.316613482249704,0)" xlink:href="#ax"/><use transform="matrix(0.008226964499401676,0,0,0.008226964499401676,20.41932588751496,0)" xlink:href="#aU"/><use transform="matrix(0.008226964499401676,0,0,0.008226964499401676,30.73593936976467,0)" xlink:href="#aD"/><use transform="matrix(0.008226964499401676,0,0,0.008226964499401676,34.8165137614679,0)" xlink:href="#az"/></g><g id="r"><use transform="matrix(0.008226964499401676,0,0,0.008226964499401676,0,0)" xlink:href="#aQ"/><use transform="matrix(0.008226964499401676,0,0,0.008226964499401676,10.481152772237737,0)" xlink:href="#as"/><use transform="matrix(0.008226964499401676,0,0,0.008226964499401676,19.942161946549668,0)" xlink:href="#aS"/><use transform="matrix(0.008226964499401676,0,0,0.008226964499401676,24.022736338252898,0)" xlink:href="#ar"/><use transform="matrix(0.008226964499401676,0,0,0.008226964499401676,29.370263262863986,0)" xlink:href="#ax"/><use transform="matrix(0.008226964499401676,0,0,0.008226964499401676,39.14389708815318,0)" xlink:href="#aw"/><use transform="matrix(0.008226964499401676,0,0,0.008226964499401676,48.284054646988444,0)" xlink:href="#aR"/><use transform="matrix(0.008226964499401676,0,0,0.008226964499401676,58.10705025927404,0)" xlink:href="#aF"/><use transform="matrix(0.008226964499401676,0,0,0.008226964499401676,68.06990426804947,0)" xlink:href="#ax"/></g><g id="s"><use transform="matrix(0.008226964499401676,0,0,0.008226964499401676,0,0)" xlink:href="#aC"/><use transform="matrix(0.008226964499401676,0,0,0.008226964499401676,10.316613482249704,0)" xlink:href="#ax"/><use transform="matrix(0.008226964499401676,0,0,0.008226964499401676,20.41932588751496,0)" xlink:href="#aG"/><use transform="matrix(0.008226964499401676,0,0,0.008226964499401676,29.312674511368176,0)" xlink:href="#aT"/><use transform="matrix(0.008226964499401676,0,0,0.008226964499401676,39.2755285201436,0)" xlink:href="#aA"/><use transform="matrix(0.008226964499401676,0,0,0.008226964499401676,49.23015556441963,0)" xlink:href="#aT"/></g><g id="t"><use transform="matrix(0.008226964499401676,0,0,0.008226964499401676,0,0)" xlink:href="#aU"/><use transform="matrix(0.008226964499401676,0,0,0.008226964499401676,10.316613482249704,0)" xlink:href="#ax"/></g><g id="u"><use transform="matrix(0.008226964499401676,0,0,0.008226964499401676,0,0)" xlink:href="#aS"/><use transform="matrix(0.008226964499401676,0,0,0.008226964499401676,4.080574391703232,0)" xlink:href="#az"/><use transform="matrix(0.008226964499401676,0,0,0.008226964499401676,13.903570003988833,0)" xlink:href="#aU"/><use transform="matrix(0.008226964499401676,0,0,0.008226964499401676,24.220183486238533,0)" xlink:href="#aA"/><use transform="matrix(0.008226964499401676,0,0,0.008226964499401676,34.17481053051456,0)" xlink:href="#aR"/></g><path d="M158 0v-1118h175l1 205c55-151 181-225 313-225 147 0 245 90 285 228 53-141 190-228 352-228 194 0 352 125 352 384V0h-181v-749c0-161-105-225-225-225-151 0-243 103-243 244V0H807v-767c0-124-93-207-219-207-131 0-250 92-250 270V0H158" id="aW"/><path d="M628 24c-324 0-524-230-524-574 0-343 198-582 503-582 237 0 487 146 487 559v75H286c9 234 145 362 343 362 132 0 231-58 273-172l174 48C1024-91 857 24 628 24zM287-650h624c-17-190-120-322-304-322-192 0-309 151-320 322zm172-908l144 175 142-175h179v9l-236 267H517l-235-267v-9h177" id="aX"/><g id="v"><use transform="matrix(0.008226964499401676,0,0,0.008226964499401676,0,0)" xlink:href="#aC"/><use transform="matrix(0.008226964499401676,0,0,0.008226964499401676,10.316613482249704,0)" xlink:href="#at"/><use transform="matrix(0.008226964499401676,0,0,0.008226964499401676,16.37988631830874,0)" xlink:href="#ax"/><use transform="matrix(0.008226964499401676,0,0,0.008226964499401676,26.482598723573997,0)" xlink:href="#aW"/><use transform="matrix(0.008226964499401676,0,0,0.008226964499401676,41.24177303550061,0)" xlink:href="#aX"/><use transform="matrix(0.008226964499401676,0,0,0.008226964499401676,51.0647686477862,0)" xlink:href="#aA"/><use transform="matrix(0.008226964499401676,0,0,0.008226964499401676,61.01939569206224,0)" xlink:href="#aA"/><use transform="matrix(0.008226964499401676,0,0,0.008226964499401676,70.97402273633826,0)" xlink:href="#aR"/></g><path d="M798-719v166H144v-166h654" id="aY"/><use transform="matrix(0.013020833333333334,0,0,0.013020833333333334,0,0)" xlink:href="#aY" id="w"/><path d="M180 0v-1490h528c311 0 458 177 458 395 0 191-114 278-244 313v14c139 9 302 137 302 371 0 225-148 397-499 397H180zm190-168h350c232 0 321-102 321-231 0-149-120-277-311-277H370v508zm0-668h328c160 0 286-101 286-255 0-129-87-231-280-231H370v486" id="aZ"/><g id="x"><use transform="matrix(0.006705136540962289,0,0,0.006705136540962289,0,0)" xlink:href="#aZ"/><use transform="matrix(0.006705136540962289,0,0,0.006705136540962289,8.984882964889467,0)" xlink:href="#aJ"/><use transform="matrix(0.006705136540962289,0,0,0.006705136540962289,12.310630689206763,0)" xlink:href="#ar"/><use transform="matrix(0.006705136540962289,0,0,0.006705136540962289,16.668969440832253,0)" xlink:href="#ax"/><use transform="matrix(0.006705136540962289,0,0,0.006705136540962289,24.634671651495452,0)" xlink:href="#aw"/><use transform="matrix(0.006705136540962289,0,0,0.006705136540962289,32.285232444733424,0)" xlink:href="#aN"/></g><g id="y"><use transform="matrix(0.006705136540962289,0,0,0.006705136540962289,0,0)" xlink:href="#at"/><use transform="matrix(0.006705136540962289,0,0,0.006705136540962289,4.941685630689207,0)" xlink:href="#ax"/><use transform="matrix(0.006705136540962289,0,0,0.006705136540962289,13.1755933029909,0)" xlink:href="#ar"/><use transform="matrix(0.006705136540962289,0,0,0.006705136540962289,17.735086150845255,0)" xlink:href="#as"/><use transform="matrix(0.006705136540962289,0,0,0.006705136540962289,25.44599317295189,0)" xlink:href="#aE"/><use transform="matrix(0.006705136540962289,0,0,0.006705136540962289,33.29100292587777,0)" xlink:href="#az"/></g><g id="z"><use transform="matrix(0.006705136540962289,0,0,0.006705136540962289,0,0)" xlink:href="#aC"/><use transform="matrix(0.006705136540962289,0,0,0.006705136540962289,8.40824122236671,0)" xlink:href="#ax"/><use transform="matrix(0.006705136540962289,0,0,0.006705136540962289,16.642148894668402,0)" xlink:href="#aU"/><use transform="matrix(0.006705136540962289,0,0,0.006705136540962289,25.050390117035114,0)" xlink:href="#aD"/><use transform="matrix(0.006705136540962289,0,0,0.006705136540962289,28.376137841352413,0)" xlink:href="#az"/></g><g id="A"><use transform="matrix(0.006705136540962289,0,0,0.006705136540962289,0,0)" xlink:href="#aw"/><use transform="matrix(0.006705136540962289,0,0,0.006705136540962289,7.4494066970091035,0)" xlink:href="#az"/><use transform="matrix(0.006705136540962289,0,0,0.006705136540962289,15.455339726918076,0)" xlink:href="#aD"/><use transform="matrix(0.006705136540962289,0,0,0.006705136540962289,18.781087451235372,0)" xlink:href="#aJ"/><use transform="matrix(0.006705136540962289,0,0,0.006705136540962289,22.106835175552668,0)" xlink:href="#aM"/><use transform="matrix(0.006705136540962289,0,0,0.006705136540962289,29.33497236671001,0)" xlink:href="#ax"/><use transform="matrix(0.006705136540962289,0,0,0.006705136540962289,37.5688800390117,0)" xlink:href="#aG"/><use transform="matrix(0.006705136540962289,0,0,0.006705136540962289,44.817132639791936,0)" xlink:href="#ar"/><use transform="matrix(0.006705136540962289,0,0,0.006705136540962289,49.30957412223667,0)" xlink:href="#aJ"/></g><g id="B"><use transform="matrix(0.006705136540962289,0,0,0.006705136540962289,0,0)" xlink:href="#aQ"/><use transform="matrix(0.006705136540962289,0,0,0.006705136540962289,8.40824122236671,0)" xlink:href="#aJ"/><use transform="matrix(0.006705136540962289,0,0,0.006705136540962289,11.733988946684006,0)" xlink:href="#ar"/><use transform="matrix(0.006705136540962289,0,0,0.006705136540962289,16.092327698309496,0)" xlink:href="#ax"/><use transform="matrix(0.006705136540962289,0,0,0.006705136540962289,24.058029908972696,0)" xlink:href="#aw"/><use transform="matrix(0.006705136540962289,0,0,0.006705136540962289,31.5074366059818,0)" xlink:href="#aR"/><use transform="matrix(0.006705136540962289,0,0,0.006705136540962289,39.51336963589077,0)" xlink:href="#aF"/><use transform="matrix(0.006705136540962289,0,0,0.006705136540962289,47.6332899869961,0)" xlink:href="#ax"/></g><g id="C"><use transform="matrix(0.006705136540962289,0,0,0.006705136540962289,0,0)" xlink:href="#aC"/><use transform="matrix(0.006705136540962289,0,0,0.006705136540962289,8.40824122236671,0)" xlink:href="#ax"/><use transform="matrix(0.006705136540962289,0,0,0.006705136540962289,16.642148894668402,0)" xlink:href="#aG"/><use transform="matrix(0.006705136540962289,0,0,0.006705136540962289,23.890401495448636,0)" xlink:href="#aT"/><use transform="matrix(0.006705136540962289,0,0,0.006705136540962289,32.01032184655397,0)" xlink:href="#aA"/><use transform="matrix(0.006705136540962289,0,0,0.006705136540962289,40.123537061118334,0)" xlink:href="#aT"/></g><path d="M218-607c0-325 108-727 258-974h175c-155 315-250 682-250 974 0 265 78 531 250 886H476C306-10 218-315 218-607" id="ba"/><path d="M653-1490V0H466v-1314h-10L96-1047v-204l324-239h233" id="bb"/><g id="D"><use transform="matrix(0.006705136540962289,0,0,0.006705136540962289,0,0)" xlink:href="#ba"/><use transform="matrix(0.006705136540962289,0,0,0.006705136540962289,5.00873699609883,0)" xlink:href="#bb"/><use transform="matrix(0.006705136540962289,0,0,0.006705136540962289,10.594115734720416,0)" xlink:href="#bb"/></g><g id="E"><use transform="matrix(0.006705136540962289,0,0,0.006705136540962289,0,0)" xlink:href="#aQ"/><use transform="matrix(0.006705136540962289,0,0,0.006705136540962289,8.40824122236671,0)" xlink:href="#aJ"/><use transform="matrix(0.006705136540962289,0,0,0.006705136540962289,11.733988946684006,0)" xlink:href="#ar"/><use transform="matrix(0.006705136540962289,0,0,0.006705136540962289,16.092327698309496,0)" xlink:href="#ax"/><use transform="matrix(0.006705136540962289,0,0,0.006705136540962289,24.058029908972696,0)" xlink:href="#aw"/><use transform="matrix(0.006705136540962289,0,0,0.006705136540962289,31.708590702210667,0)" xlink:href="#aN"/></g><g id="F"><use transform="matrix(0.006705136540962289,0,0,0.006705136540962289,0,0)" xlink:href="#aF"/><use transform="matrix(0.006705136540962289,0,0,0.006705136540962289,8.119920351105332,0)" xlink:href="#ax"/><use transform="matrix(0.006705136540962289,0,0,0.006705136540962289,16.353828023407022,0)" xlink:href="#aU"/><use transform="matrix(0.006705136540962289,0,0,0.006705136540962289,24.762069245773734,0)" xlink:href="#aA"/><use transform="matrix(0.006705136540962289,0,0,0.006705136540962289,32.8752844603381,0)" xlink:href="#ax"/><use transform="matrix(0.006705136540962289,0,0,0.006705136540962289,41.10919213263979,0)" xlink:href="#ar"/><use transform="matrix(0.006705136540962289,0,0,0.006705136540962289,45.66868498049415,0)" xlink:href="#as"/></g><g id="G"><use transform="matrix(0.006705136540962289,0,0,0.006705136540962289,0,0)" xlink:href="#aM"/><use transform="matrix(0.006705136540962289,0,0,0.006705136540962289,7.5365734720416135,0)" xlink:href="#as"/><use transform="matrix(0.006705136540962289,0,0,0.006705136540962289,15.247480494148245,0)" xlink:href="#aA"/><use transform="matrix(0.006705136540962289,0,0,0.006705136540962289,23.360695708712615,0)" xlink:href="#aN"/><use transform="matrix(0.006705136540962289,0,0,0.006705136540962289,31.071602730819247,0)" xlink:href="#aD"/><use transform="matrix(0.006705136540962289,0,0,0.006705136540962289,34.39735045513655,0)" xlink:href="#aT"/></g><g id="H"><use transform="matrix(0.006705136540962289,0,0,0.006705136540962289,0,0)" xlink:href="#aA"/><use transform="matrix(0.006705136540962289,0,0,0.006705136540962289,8.11321521456437,0)" xlink:href="#as"/></g><path d="M126 0v-134l627-806v-11H146v-167h839v143L376-178v11h629V0H126zm285-1558l144 175 142-175h179v9l-236 267H469l-235-267v-9h177" id="bc"/><path d="M538 24C308 24 148-78 108-271l171-41c32 123 123 178 257 178 156 0 256-77 256-169 0-77-54-128-164-154l-186-44c-203-48-300-148-300-305 0-192 176-326 414-326 230 0 351 112 402 269l-163 42c-31-80-94-158-238-158-133 0-233 69-233 162 0 83 57 129 188 160l169 40c203 48 298 149 298 302 0 196-179 339-441 339zM409-1558l144 175 142-175h179v9l-236 267H467l-235-267v-9h177" id="bd"/><g id="I"><use transform="matrix(0.006705136540962289,0,0,0.006705136540962289,0,0)" xlink:href="#aA"/><use transform="matrix(0.006705136540962289,0,0,0.006705136540962289,8.11321521456437,0)" xlink:href="#az"/><use transform="matrix(0.006705136540962289,0,0,0.006705136540962289,16.119148244473344,0)" xlink:href="#aS"/><use transform="matrix(0.006705136540962289,0,0,0.006705136540962289,19.44489596879064,0)" xlink:href="#aA"/><use transform="matrix(0.006705136540962289,0,0,0.006705136540962289,27.55811118335501,0)" xlink:href="#aJ"/><use transform="matrix(0.006705136540962289,0,0,0.006705136540962289,30.883858907672305,0)" xlink:href="#bc"/><use transform="matrix(0.006705136540962289,0,0,0.006705136540962289,38.46736833550065,0)" xlink:href="#bd"/><use transform="matrix(0.006705136540962289,0,0,0.006705136540962289,45.715620936280885,0)" xlink:href="#aB"/><use transform="matrix(0.006705136540962289,0,0,0.006705136540962289,49.04136866059818,0)" xlink:href="#aE"/><use transform="matrix(0.006705136540962289,0,0,0.006705136540962289,56.88637841352408,0)" xlink:href="#aF"/></g><path d="M96 279C273-86 346-350 346-607c0-292-95-659-250-974h175c150 246 258 650 258 974 0 297-91 602-258 886H96" id="be"/><g id="J"><use transform="matrix(0.006705136540962289,0,0,0.006705136540962289,0,0)" xlink:href="#aQ"/><use transform="matrix(0.006705136540962289,0,0,0.006705136540962289,8.40824122236671,0)" xlink:href="#aJ"/><use transform="matrix(0.006705136540962289,0,0,0.006705136540962289,11.733988946684006,0)" xlink:href="#ar"/><use transform="matrix(0.006705136540962289,0,0,0.006705136540962289,16.092327698309496,0)" xlink:href="#az"/><use transform="matrix(0.006705136540962289,0,0,0.006705136540962289,24.09826072821847,0)" xlink:href="#aE"/><use transform="matrix(0.006705136540962289,0,0,0.006705136540962289,31.943270481144353,0)" xlink:href="#aF"/><use transform="matrix(0.006705136540962289,0,0,0.006705136540962289,40.06319083224968,0)" xlink:href="#be"/></g><g id="K"><use transform="matrix(0.00750112316282652,0,0,0.00750112316282652,0,0)" xlink:href="#au"/><use transform="matrix(0.00750112316282652,0,0,0.00750112316282652,10.599087029073873,0)" xlink:href="#aP"/><use transform="matrix(0.00750112316282652,0,0,0.00750112316282652,19.232879789487196,0)" xlink:href="#aC"/><use transform="matrix(0.00750112316282652,0,0,0.00750112316282652,28.639288235671653,0)" xlink:href="#ax"/><use transform="matrix(0.00750112316282652,0,0,0.00750112316282652,37.850667479622615,0)" xlink:href="#aL"/><use transform="matrix(0.00750112316282652,0,0,0.00750112316282652,46.626981580129645,0)" xlink:href="#az"/><use transform="matrix(0.00750112316282652,0,0,0.00750112316282652,55.58332263654451,0)" xlink:href="#ar"/></g><g id="L"><use transform="matrix(0.00750112316282652,0,0,0.00750112316282652,0,0)" xlink:href="#aF"/><use transform="matrix(0.00750112316282652,0,0,0.00750112316282652,9.083860150182916,0)" xlink:href="#ax"/><use transform="matrix(0.00750112316282652,0,0,0.00750112316282652,18.29523939413388,0)" xlink:href="#aU"/><use transform="matrix(0.00750112316282652,0,0,0.00750112316282652,27.701647840318337,0)" xlink:href="#aA"/><use transform="matrix(0.00750112316282652,0,0,0.00750112316282652,36.778006867338426,0)" xlink:href="#ax"/><use transform="matrix(0.00750112316282652,0,0,0.00750112316282652,45.98938611128939,0)" xlink:href="#ar"/><use transform="matrix(0.00750112316282652,0,0,0.00750112316282652,51.31518355689622,0)" xlink:href="#av"/></g><g id="M"><use transform="matrix(0.00750112316282652,0,0,0.00750112316282652,0,0)" xlink:href="#aM"/><use transform="matrix(0.00750112316282652,0,0,0.00750112316282652,8.431262435017008,0)" xlink:href="#as"/><use transform="matrix(0.00750112316282652,0,0,0.00750112316282652,17.057554072267507,0)" xlink:href="#aA"/><use transform="matrix(0.00750112316282652,0,0,0.00750112316282652,26.133913099287597,0)" xlink:href="#aN"/><use transform="matrix(0.00750112316282652,0,0,0.00750112316282652,34.7602047365381,0)" xlink:href="#aD"/><use transform="matrix(0.00750112316282652,0,0,0.00750112316282652,38.48076182530005,0)" xlink:href="#aT"/></g><g id="N"><use transform="matrix(0.00750112316282652,0,0,0.00750112316282652,0,0)" xlink:href="#aC"/><use transform="matrix(0.00750112316282652,0,0,0.00750112316282652,9.406408446184455,0)" xlink:href="#ax"/><use transform="matrix(0.00750112316282652,0,0,0.00750112316282652,18.617787690135422,0)" xlink:href="#aW"/><use transform="matrix(0.00750112316282652,0,0,0.00750112316282652,32.074802644246205,0)" xlink:href="#ax"/><use transform="matrix(0.00750112316282652,0,0,0.00750112316282652,41.28618188819717,0)" xlink:href="#aE"/><use transform="matrix(0.00750112316282652,0,0,0.00750112316282652,50.0624959887042,0)" xlink:href="#aB"/></g><g id="O"><use transform="matrix(0.00750112316282652,0,0,0.00750112316282652,0,0)" xlink:href="#aQ"/><use transform="matrix(0.00750112316282652,0,0,0.00750112316282652,9.406408446184455,0)" xlink:href="#aJ"/><use transform="matrix(0.00750112316282652,0,0,0.00750112316282652,13.12696553494641,0)" xlink:href="#ar"/><use transform="matrix(0.00750112316282652,0,0,0.00750112316282652,18.00269559078365,0)" xlink:href="#ax"/><use transform="matrix(0.00750112316282652,0,0,0.00750112316282652,26.914029908221554,0)" xlink:href="#aw"/><use transform="matrix(0.00750112316282652,0,0,0.00750112316282652,35.24777774212182,0)" xlink:href="#aR"/></g><g id="P"><use transform="matrix(0.00750112316282652,0,0,0.00750112316282652,0,0)" xlink:href="#aW"/><use transform="matrix(0.00750112316282652,0,0,0.00750112316282652,13.457014954110777,0)" xlink:href="#as"/><use transform="matrix(0.00750112316282652,0,0,0.00750112316282652,22.08330659136128,0)" xlink:href="#aG"/><use transform="matrix(0.00750112316282652,0,0,0.00750112316282652,30.192020730376747,0)" xlink:href="#aM"/><use transform="matrix(0.00750112316282652,0,0,0.00750112316282652,38.62328316539375,0)" xlink:href="#av"/></g><g id="Q"><use transform="matrix(0.00750112316282652,0,0,0.00750112316282652,0,0)" xlink:href="#aC"/><use transform="matrix(0.00750112316282652,0,0,0.00750112316282652,9.406408446184455,0)" xlink:href="#at"/><use transform="matrix(0.00750112316282652,0,0,0.00750112316282652,14.9347362171876,0)" xlink:href="#ax"/></g><g id="R"><use transform="matrix(0.00750112316282652,0,0,0.00750112316282652,0,0)" xlink:href="#aA"/><use transform="matrix(0.00750112316282652,0,0,0.00750112316282652,9.07635902702009,0)" xlink:href="#az"/><use transform="matrix(0.00750112316282652,0,0,0.00750112316282652,18.032700083434953,0)" xlink:href="#aS"/><use transform="matrix(0.00750112316282652,0,0,0.00750112316282652,21.753257172196907,0)" xlink:href="#aA"/><use transform="matrix(0.00750112316282652,0,0,0.00750112316282652,30.829616199216996,0)" xlink:href="#aJ"/><use transform="matrix(0.00750112316282652,0,0,0.00750112316282652,34.55017328797895,0)" xlink:href="#bc"/><use transform="matrix(0.00750112316282652,0,0,0.00750112316282652,43.03394358513574,0)" xlink:href="#bd"/><use transform="matrix(0.00750112316282652,0,0,0.00750112316282652,51.142657724151206,0)" xlink:href="#aB"/><use transform="matrix(0.00750112316282652,0,0,0.00750112316282652,54.863214812913164,0)" xlink:href="#aE"/><use transform="matrix(0.00750112316282652,0,0,0.00750112316282652,63.63952891342019,0)" xlink:href="#aF"/></g><g id="S"><use transform="matrix(0.00750112316282652,0,0,0.00750112316282652,0,0)" xlink:href="#bb"/><use transform="matrix(0.00750112316282652,0,0,0.00750112316282652,6.248435594634491,0)" xlink:href="#bb"/><use transform="matrix(0.00750112316282652,0,0,0.00750112316282652,16.817518131057057,0)" xlink:href="#aQ"/><use transform="matrix(0.00750112316282652,0,0,0.00750112316282652,26.223926577241514,0)" xlink:href="#aJ"/><use transform="matrix(0.00750112316282652,0,0,0.00750112316282652,29.94448366600347,0)" xlink:href="#ar"/><use transform="matrix(0.00750112316282652,0,0,0.00750112316282652,34.97023618509724,0)" xlink:href="#aO"/></g><use transform="matrix(0.010850694444444444,0,0,0.010850694444444444,0,0)" xlink:href="#aJ" id="T"/><path d="M593-100v-404H195v-159h398v-403h169v403h398v159H762v404H593" id="bf"/><g id="U"><use transform="matrix(0.010850694444444444,0,0,0.010850694444444444,0,0)" xlink:href="#bf"/><use transform="matrix(0.010850694444444444,0,0,0.010850694444444444,14.702690972222221,0)" xlink:href="#bf"/></g><path d="M130 0v-134l666-991c45-67 96-135 147-202-269 9-546 3-821 5v-168h1036v136L502-379c-49 72-103 145-157 216 268-9 546-3 821-5V0H130" id="bg"/><g id="V"><use transform="matrix(0.009280089988751407,0,0,0.009280089988751407,0,0)" xlink:href="#bg"/><use transform="matrix(0.009280089988751407,0,0,0.009280089988751407,11.952755905511811,0)" xlink:href="#aN"/><use transform="matrix(0.009280089988751407,0,0,0.009280089988751407,22.62485939257593,0)" xlink:href="#aC"/><use transform="matrix(0.009280089988751407,0,0,0.009280089988751407,34.262092238470196,0)" xlink:href="#aJ"/><use transform="matrix(0.009280089988751407,0,0,0.009280089988751407,38.865016872890905,0)" xlink:href="#aG"/></g><g id="W"><use transform="matrix(0.009280089988751407,0,0,0.009280089988751407,0,0)" xlink:href="#aF"/><use transform="matrix(0.009280089988751407,0,0,0.009280089988751407,11.238188976377954,0)" xlink:href="#ax"/><use transform="matrix(0.009280089988751407,0,0,0.009280089988751407,22.634139482564677,0)" xlink:href="#aU"/><use transform="matrix(0.009280089988751407,0,0,0.009280089988751407,34.271372328458945,0)" xlink:href="#aA"/><use transform="matrix(0.009280089988751407,0,0,0.009280089988751407,45.500281214848144,0)" xlink:href="#ax"/><use transform="matrix(0.009280089988751407,0,0,0.009280089988751407,56.896231721034866,0)" xlink:href="#ar"/><use transform="matrix(0.009280089988751407,0,0,0.009280089988751407,63.48509561304838,0)" xlink:href="#av"/></g><g id="X"><use transform="matrix(0.009280089988751407,0,0,0.009280089988751407,0,0)" xlink:href="#aM"/><use transform="matrix(0.009280089988751407,0,0,0.009280089988751407,10.43082114735658,0)" xlink:href="#as"/><use transform="matrix(0.009280089988751407,0,0,0.009280089988751407,21.102924634420702,0)" xlink:href="#aA"/><use transform="matrix(0.009280089988751407,0,0,0.009280089988751407,32.3318335208099,0)" xlink:href="#aN"/><use transform="matrix(0.009280089988751407,0,0,0.009280089988751407,43.00393700787402,0)" xlink:href="#aD"/><use transform="matrix(0.009280089988751407,0,0,0.009280089988751407,47.60686164229472,0)" xlink:href="#aT"/></g><g id="Y"><use transform="matrix(0.009280089988751407,0,0,0.009280089988751407,0,0)" xlink:href="#aU"/><use transform="matrix(0.009280089988751407,0,0,0.009280089988751407,11.637232845894264,0)" xlink:href="#ax"/></g><g id="Z"><use transform="matrix(0.009280089988751407,0,0,0.009280089988751407,0,0)" xlink:href="#aC"/><use transform="matrix(0.009280089988751407,0,0,0.009280089988751407,11.637232845894264,0)" xlink:href="#ax"/><use transform="matrix(0.009280089988751407,0,0,0.009280089988751407,23.033183352080993,0)" xlink:href="#aD"/><use transform="matrix(0.009280089988751407,0,0,0.009280089988751407,27.636107986501685,0)" xlink:href="#az"/></g><g id="aa"><use transform="matrix(0.009280089988751407,0,0,0.009280089988751407,0,0)" xlink:href="#aE"/><use transform="matrix(0.009280089988751407,0,0,0.009280089988751407,10.857705286839147,0)" xlink:href="#aF"/><use transform="matrix(0.009280089988751407,0,0,0.009280089988751407,22.095894263217097,0)" xlink:href="#as"/><use transform="matrix(0.009280089988751407,0,0,0.009280089988751407,32.76799775028121,0)" xlink:href="#aA"/><use transform="matrix(0.009280089988751407,0,0,0.009280089988751407,43.99690663667041,0)" xlink:href="#aA"/><use transform="matrix(0.009280089988751407,0,0,0.009280089988751407,55.22581552305961,0)" xlink:href="#az"/><use transform="matrix(0.009280089988751407,0,0,0.009280089988751407,66.30624296962878,0)" xlink:href="#aD"/><use transform="matrix(0.009280089988751407,0,0,0.009280089988751407,70.90916760404949,0)" xlink:href="#aG"/></g><g id="ab"><use transform="matrix(0.009280089988751407,0,0,0.009280089988751407,0,0)" xlink:href="#au"/><use transform="matrix(0.009280089988751407,0,0,0.009280089988751407,13.112767154105738,0)" xlink:href="#at"/><use transform="matrix(0.009280089988751407,0,0,0.009280089988751407,20.26771653543307,0)" xlink:href="#aN"/><use transform="matrix(0.009280089988751407,0,0,0.009280089988751407,30.939820022497187,0)" xlink:href="#aE"/><use transform="matrix(0.009280089988751407,0,0,0.009280089988751407,41.79752530933633,0)" xlink:href="#az"/><use transform="matrix(0.009280089988751407,0,0,0.009280089988751407,52.87795275590551,0)" xlink:href="#aA"/><use transform="matrix(0.009280089988751407,0,0,0.009280089988751407,64.10686164229472,0)" xlink:href="#aB"/></g><path d="M613 24c-304 0-509-231-509-576 0-350 205-580 509-580 305 0 511 230 511 580 0 345-206 576-511 576zm0-161c226 0 329-195 329-415 0-222-103-419-329-419-223 0-326 196-326 419 0 220 103 415 326 415zm-79-1127l140-294h201l-194 294H534" id="bh"/><g id="ac"><use transform="matrix(0.009280089988751407,0,0,0.009280089988751407,0,0)" xlink:href="#aU"/><use transform="matrix(0.009280089988751407,0,0,0.009280089988751407,11.637232845894264,0)" xlink:href="#az"/><use transform="matrix(0.009280089988751407,0,0,0.009280089988751407,22.717660292463442,0)" xlink:href="#aM"/><use transform="matrix(0.009280089988751407,0,0,0.009280089988751407,32.72159730033746,0)" xlink:href="#bh"/><use transform="matrix(0.009280089988751407,0,0,0.009280089988751407,44.11754780652419,0)" xlink:href="#aU"/><use transform="matrix(0.009280089988751407,0,0,0.009280089988751407,55.75478065241845,0)" xlink:href="#ax"/><use transform="matrix(0.009280089988751407,0,0,0.009280089988751407,66.77952755905511,0)" xlink:href="#aw"/><use transform="matrix(0.009280089988751407,0,0,0.009280089988751407,77.36811023622049,0)" xlink:href="#as"/><use transform="matrix(0.009280089988751407,0,0,0.009280089988751407,88.04021372328458,0)" xlink:href="#aA"/><use transform="matrix(0.009280089988751407,0,0,0.009280089988751407,98.99071991001124,0)" xlink:href="#aP"/><use transform="matrix(0.009280089988751407,0,0,0.009280089988751407,109.30089988751403,0)" xlink:href="#aE"/><use transform="matrix(0.009280089988751407,0,0,0.009280089988751407,120.15860517435317,0)" xlink:href="#aF"/></g><g id="ad"><use transform="matrix(0.009280089988751407,0,0,0.009280089988751407,0,0)" xlink:href="#aM"/><use transform="matrix(0.009280089988751407,0,0,0.009280089988751407,10.43082114735658,0)" xlink:href="#as"/><use transform="matrix(0.009280089988751407,0,0,0.009280089988751407,21.102924634420702,0)" xlink:href="#aA"/><use transform="matrix(0.009280089988751407,0,0,0.009280089988751407,32.3318335208099,0)" xlink:href="#aN"/><use transform="matrix(0.009280089988751407,0,0,0.009280089988751407,43.00393700787402,0)" xlink:href="#aD"/><use transform="matrix(0.009280089988751407,0,0,0.009280089988751407,47.60686164229472,0)" xlink:href="#aO"/></g><path d="M52 0l541-1490h220L1361 0h-200l-149-416H398L254 0H52zm404-582h497c-103-290-145-390-251-756-108 377-145 460-246 756" id="bi"/><use transform="matrix(0.010850694444444444,0,0,0.010850694444444444,0,0)" xlink:href="#bi" id="ae"/><use transform="matrix(0.010850694444444444,0,0,0.010850694444444444,0,0)" xlink:href="#bi" id="af"/><use transform="matrix(0.010850694444444444,0,0,0.010850694444444444,0,0)" xlink:href="#aZ" id="ag"/><g id="ah"><use transform="matrix(0.008680555555555556,0,0,0.008680555555555556,0,0)" xlink:href="#aV"/><use transform="matrix(0.008680555555555556,0,0,0.008680555555555556,13.394097222222223,0)" xlink:href="#as"/><use transform="matrix(0.008680555555555556,0,0,0.008680555555555556,23.376736111111118,0)" xlink:href="#aL"/><use transform="matrix(0.008680555555555556,0,0,0.008680555555555556,33.532986111111114,0)" xlink:href="#ar"/><use transform="matrix(0.008680555555555556,0,0,0.008680555555555556,39.17534722222222,0)" xlink:href="#az"/><use transform="matrix(0.008680555555555556,0,0,0.008680555555555556,49.53993055555556,0)" xlink:href="#aA"/><use transform="matrix(0.008680555555555556,0,0,0.008680555555555556,60.04340277777778,0)" xlink:href="#aB"/></g><g id="ai"><use transform="matrix(0.008680555555555556,0,0,0.008680555555555556,0,0)" xlink:href="#aF"/><use transform="matrix(0.008680555555555556,0,0,0.008680555555555556,10.512152777777779,0)" xlink:href="#ax"/><use transform="matrix(0.008680555555555556,0,0,0.008680555555555556,21.171875,0)" xlink:href="#aU"/><use transform="matrix(0.008680555555555556,0,0,0.008680555555555556,32.05729166666667,0)" xlink:href="#aA"/><use transform="matrix(0.008680555555555556,0,0,0.008680555555555556,42.56076388888889,0)" xlink:href="#ax"/><use transform="matrix(0.008680555555555556,0,0,0.008680555555555556,53.220486111111114,0)" xlink:href="#ar"/></g><g id="aj"><use transform="matrix(0.008680555555555556,0,0,0.008680555555555556,0,0)" xlink:href="#aM"/><use transform="matrix(0.008680555555555556,0,0,0.008680555555555556,9.756944444444445,0)" xlink:href="#as"/><use transform="matrix(0.008680555555555556,0,0,0.008680555555555556,19.739583333333336,0)" xlink:href="#aA"/><use transform="matrix(0.008680555555555556,0,0,0.008680555555555556,30.243055555555557,0)" xlink:href="#aN"/><use transform="matrix(0.008680555555555556,0,0,0.008680555555555556,40.22569444444444,0)" xlink:href="#aD"/><use transform="matrix(0.008680555555555556,0,0,0.008680555555555556,44.53125,0)" xlink:href="#aO"/></g><g id="ak"><use transform="matrix(0.008680555555555556,0,0,0.008680555555555556,0,0)" xlink:href="#aU"/><use transform="matrix(0.008680555555555556,0,0,0.008680555555555556,10.885416666666668,0)" xlink:href="#ax"/></g><g id="al"><use transform="matrix(0.008680555555555556,0,0,0.008680555555555556,0,0)" xlink:href="#aC"/><use transform="matrix(0.008680555555555556,0,0,0.008680555555555556,10.885416666666668,0)" xlink:href="#ax"/><use transform="matrix(0.008680555555555556,0,0,0.008680555555555556,21.545138888888893,0)" xlink:href="#aD"/><use transform="matrix(0.008680555555555556,0,0,0.008680555555555556,25.85069444444445,0)" xlink:href="#az"/></g><g id="am"><use transform="matrix(0.008680555555555556,0,0,0.008680555555555556,0,0)" xlink:href="#aU"/><use transform="matrix(0.008680555555555556,0,0,0.008680555555555556,10.885416666666668,0)" xlink:href="#as"/><use transform="matrix(0.008680555555555556,0,0,0.008680555555555556,20.868055555555557,0)" xlink:href="#ar"/><use transform="matrix(0.008680555555555556,0,0,0.008680555555555556,26.770833333333336,0)" xlink:href="#as"/></g><path d="M226-283v-166h904v166H226zm0-434v-166h904v166H226" id="bj"/><use transform="matrix(0.010850694444444444,0,0,0.010850694444444444,0,0)" xlink:href="#bj" id="an"/><path d="M646 20c-332 0-524-278-524-764 0-483 194-766 524-766s524 283 524 766c0 485-191 764-524 764zm0-166c218 0 341-220 341-598 0-380-123-601-341-601s-341 222-341 601c0 378 123 598 341 598" id="bk"/><use transform="matrix(0.010850694444444444,0,0,0.010850694444444444,0,0)" xlink:href="#bk" id="ao"/><path d="M180 0v-1490h190c0 262 1 526-3 784 217-279 467-523 702-784h249L716-845 1319 0h-225L585-716 370-489V0H180" id="bl"/><g id="ap"><use transform="matrix(0.010850694444444444,0,0,0.010850694444444444,0,0)" xlink:href="#bl"/><use transform="matrix(0.010850694444444444,0,0,0.010850694444444444,14.051649305555555,0)" xlink:href="#ax"/><use transform="matrix(0.010850694444444444,0,0,0.010850694444444444,27.376302083333332,0)" xlink:href="#aA"/><use transform="matrix(0.010850694444444444,0,0,0.010850694444444444,40.50564236111111,0)" xlink:href="#az"/><use transform="matrix(0.010850694444444444,0,0,0.010850694444444444,53.46137152777778,0)" xlink:href="#aE"/></g></defs></g></svg>